<?xml version="1.0" encoding="utf-8"?>
<!-- Generator: Adobe Illustrator 27.5.0, SVG Export Plug-In . SVG Version: 6.00 Build 0)  -->
<svg version="1.1" id="Layer_1" xmlns="http://www.w3.org/2000/svg" xmlns:xlink="http://www.w3.org/1999/xlink" x="0px" y="0px"
	 viewBox="0 0 4000 4000" style="enable-background:new 0 0 4000 4000;" xml:space="preserve">
<g>
	<g>
		<rect style="fill:#FFCC80;" width="4000" height="4000"/>
	</g>
	<g>
		<g>
			<g>
				<g>
					<path style="fill:#0FD15D;" d="M3386.789,1814.178c2.353,37.501-23.015,69.615-56.664,71.726
						c-33.648,2.117-62.833-26.567-65.192-64.068c-2.358-37.495,23.009-69.609,56.657-71.726
						C3355.24,1747.998,3384.43,1776.683,3386.789,1814.178z"/>
				</g>
				<g style="opacity:0.6;">
					<path style="fill:#FFFFFF;" d="M3267.416,1836.731c7.097-26.181,28.121-45.834,54.175-47.473
						c29.019-1.82,54.677,19.286,62.714,49.17c2.069-7.63,3.014-15.788,2.484-24.25c-2.359-37.495-31.549-66.18-65.198-64.068
						c-33.649,2.117-59.016,34.231-56.657,71.726C3265.259,1826.994,3266.134,1831.962,3267.416,1836.731z"/>
				</g>
				<g>
					<path style="fill:#371A45;" d="M3326.568,1900.839c-18.911,0-36.929-7.551-51.162-21.541
						c-14.922-14.666-23.896-34.741-25.269-56.533c-2.866-45.593,28.77-84.824,70.522-87.451
						c41.729-2.578,78.052,32.336,80.923,77.932c0,0,0,0,0,0.002c1.367,21.79-5.024,42.832-17.993,59.25
						c-13.345,16.897-32.002,26.909-52.534,28.198C3329.556,1900.79,3328.057,1900.839,3326.568,1900.839z M3325.064,1764.824
						c-0.845,0-1.689,0.027-2.544,0.08c-25.439,1.599-44.634,26.721-42.793,56.001c0.908,14.485,6.753,27.715,16.455,37.248
						c9.272,9.114,20.972,13.733,33.013,12.954c12.021-0.752,23.076-6.785,31.133-16.985c8.433-10.674,12.573-24.531,11.665-39.016
						l0,0C3370.216,1786.808,3349.425,1764.824,3325.064,1764.824z"/>
				</g>
			</g>
			<g>
				<g>
					<path style="fill:#0FD15D;" d="M3336.16,1884.598c19.286,38.542,10.475,82.019-19.674,97.105
						c-30.149,15.086-70.226-3.929-89.512-42.465c-19.286-38.542-10.475-82.013,19.674-97.105
						C3276.797,1827.047,3316.874,1846.062,3336.16,1884.598z"/>
				</g>
				<g style="opacity:0.6;">
					<path style="fill:#FFFFFF;" d="M3246.648,1879.922c30.149-15.086,70.226,3.929,89.512,42.465
						c3.676,7.348,6.317,14.873,7.999,22.349c4.455-18.176,2.166-39.824-7.999-60.138c-19.286-38.536-59.363-57.551-89.512-42.465
						c-24.401,12.216-34.81,43.021-27.673,74.758C3222.974,1900.581,3232.389,1887.06,3246.648,1879.922z"/>
				</g>
				<g>
					<path style="fill:#371A45;" d="M3294.454,2001.633c-30.962,0.002-63.364-21.05-80.737-55.762
						c-22.91-45.781-11.113-98.264,26.294-116.992c37.407-18.725,86.489,3.294,109.404,49.087l0,0
						c10.801,21.587,14.346,45.354,9.976,66.926c-4.644,22.905-17.524,40.689-36.274,50.068
						C3314.068,1999.487,3304.332,2001.633,3294.454,2001.633z M3269.156,1851.72c-5.527,0-10.903,1.179-15.879,3.67
						c-22.788,11.409-28.643,46.047-13.047,77.214s46.836,47.256,69.619,35.842c10.42-5.21,17.69-15.667,20.483-29.443
						c3.062-15.11,0.425-32.078-7.432-47.771l0,0C3310.709,1866.867,3288.961,1851.72,3269.156,1851.72z"/>
				</g>
			</g>
			<g>
				<g>
					<path style="fill:#0FD15D;" d="M3446.069,1935.109c-16.375,49.164-60.822,78.637-99.287,65.833
						c-38.46-12.81-56.369-63.051-40.001-112.215c16.374-49.164,60.822-78.637,99.287-65.827
						C3444.528,1835.704,3462.438,1885.945,3446.069,1935.109z"/>
				</g>
				<g style="opacity:0.6;">
					<path style="fill:#FFFFFF;" d="M3306.781,1929.381c16.374-49.164,60.822-78.637,99.287-65.827
						c23.181,7.718,38.819,29.074,44.062,55.559c8.102-43.63-9.778-84.8-44.062-96.213c-38.466-12.81-82.913,16.663-99.287,65.827
						c-6.502,19.531-7.518,39.194-4.061,56.65C3303.705,1940.063,3305.005,1934.718,3306.781,1929.381z"/>
				</g>
				<g>
					<path style="fill:#371A45;" d="M3365.108,2018.718c-7.734,0-15.459-1.199-23.008-3.711
						c-46.157-15.374-68.311-74.124-49.38-130.962c8.96-26.907,25.732-49.573,47.231-63.826
						c22.632-15.003,47.788-19.048,70.801-11.384c46.152,15.369,68.306,74.114,49.38,130.957c0,0,0,0,0,0.003
						C3444.298,1987.333,3404.659,2018.718,3365.108,2018.718z M3387.481,1834.731c-10.283,0-20.981,3.455-31.147,10.195
						c-16.006,10.613-28.608,27.832-35.488,48.484c-13.76,41.331-0.024,83.262,30.62,93.469
						c30.64,10.178,66.768-15.127,80.542-56.455c13.76-41.331,0.024-83.257-30.62-93.459
						C3396.9,1835.47,3392.237,1834.731,3387.481,1834.731z M3446.07,1935.109h0.049H3446.07z"/>
				</g>
			</g>
			<g>
				<path style="fill:#EFDADA;" d="M3206.429,1999.942c0.004,11.672,1.663,23.737,5.393,36.064
					c15.361,50.764,61.323,87.632,114.28,90.551c73.319,4.041,134.037-54.217,134.037-126.656c0-0.084,0-0.169,0-0.253
					c-0.031-14.972-10.074-28.038-24.218-32.949c-31.489-10.933-66.185-16.992-102.636-16.992c-36.441,0-71.127,6.056-102.61,16.983
					C3216.423,1971.636,3206.424,1984.857,3206.429,1999.942z"/>
			</g>
			<g style="opacity:0.3;">
				<path style="fill:#371A45;" d="M3452.916,1978.935c-20.698,46.341-68.359,77.999-123.049,74.985
					c-49.408-2.723-92.703-35.007-110.762-80.546c-7.759,6.531-12.678,16.061-12.675,26.569c0.003,11.672,1.663,23.737,5.393,36.063
					c15.36,50.766,61.322,87.633,114.28,90.552c73.319,4.041,134.036-54.217,134.036-126.656c0-0.085,0-0.169,0-0.253
					C3460.122,1991.948,3457.425,1984.776,3452.916,1978.935z"/>
			</g>
			<g>
				<path style="fill:#371A45;" d="M3333.389,2144.052c-2.734,0-5.483-0.076-8.242-0.227
					c-60.078-3.311-112.271-44.626-129.878-102.81c-4.067-13.445-6.133-27.261-6.133-41.069l0,0c0,0,0-0.002,0-0.005l0,0
					c-0.005-22.214,14.409-42.141,35.869-49.587c34.292-11.904,70.723-17.939,108.276-17.939c37.563,0,74.004,6.038,108.311,17.947
					c21.392,7.429,35.796,27.224,35.84,49.253c0,40.298-16.011,77.485-45.078,104.997
					C3405.299,2130.214,3370.421,2144.052,3333.389,2144.052z M3333.282,1966.999c-33.682,0-66.299,5.393-96.938,16.03
					c-7.549,2.62-12.622,9.414-12.617,16.907c0,0,0,0.002,0,0.005c0,10.413,1.563,20.862,4.648,31.055
					c13.408,44.317,53.066,75.781,98.677,78.293c30.435,1.697,59.443-8.901,81.528-29.8c22.095-20.913,34.263-49.177,34.263-79.587
					c-0.015-7.566-5.078-14.255-12.598-16.868C3399.6,1972.394,3366.973,1966.999,3333.282,1966.999z"/>
			</g>
			<g>
				<g>
					<path style="fill:#371A45;" d="M3449.439,2054.118c-37.107-11.116-76.19-16.757-116.156-16.757
						c-39.895,0-78.919,5.623-115.979,16.71l-12.081-40.395c40.983-12.257,84.072-18.474,128.06-18.474
						c44.071,0,87.218,6.234,128.26,18.533L3449.439,2054.118z"/>
				</g>
			</g>
			<g>
				<g>
					<path style="fill:#979797;" d="M3598.285,2245.645v432.193h-522.474v-558.611c47.458-41.436,231.876-44.447,301.138-19.574
						l174.359,74.742C3579.795,2186.561,3598.285,2214.626,3598.285,2245.645z"/>
				</g>
				<g style="opacity:0.6;">
					<path style="fill:#FFFFFF;" d="M3551.307,2174.395l-174.359-74.742c-69.262-24.873-253.679-21.862-301.138,19.574v46.401
						c47.458-41.436,231.876-44.447,301.138-19.574l174.359,74.742c28.488,12.166,46.978,40.231,46.978,71.25v-46.401
						C3598.285,2214.626,3579.795,2186.561,3551.307,2174.395z"/>
				</g>
				<g style="opacity:0.3;">
					<path style="fill:#371A45;" d="M3556.083,2176.649c0.007,0.415,0.042,0.823,0.042,1.24v136.325
						c0,163.403-121.776,295.868-271.995,295.868h-113.503c-52.367,0-94.817-46.176-94.817-103.14v170.896h522.474v-432.193
						C3598.285,2216.4,3581.839,2189.793,3556.083,2176.649z"/>
				</g>
				<g>
					<g>
						<circle style="fill:#606060;" cx="3226.38" cy="2428.393" r="48.182"/>
					</g>
					<g>
						<path style="fill:#371A45;" d="M3226.378,2493.869c-36.104,0-65.474-29.373-65.474-65.476s29.37-65.474,65.474-65.474
							s65.479,29.37,65.479,65.474S3262.481,2493.869,3226.378,2493.869z M3226.378,2397.504c-17.031,0-30.884,13.858-30.884,30.889
							c0,17.034,13.853,30.891,30.884,30.891s30.889-13.857,30.889-30.891C3257.266,2411.362,3243.409,2397.504,3226.378,2397.504z"
							/>
					</g>
					<g>
						<path style="fill:#606060;" d="M3282.59,2244.699c0,31.049-25.167,56.216-56.21,56.216c-31.043,0-56.211-25.167-56.211-56.216
							c0-31.043,25.167-56.21,56.211-56.21C3257.423,2188.489,3282.59,2213.656,3282.59,2244.699z"/>
					</g>
					<g>
						<path style="fill:#371A45;" d="M3226.378,2318.208c-40.527,0-73.501-32.976-73.501-73.508
							c0-40.53,32.974-73.504,73.501-73.504c40.532,0,73.506,32.974,73.506,73.504
							C3299.884,2285.231,3266.91,2318.208,3226.378,2318.208z M3226.378,2205.781c-21.455,0-38.911,17.458-38.911,38.919
							c0,21.462,17.456,38.923,38.911,38.923c21.46,0,38.916-17.461,38.916-38.923
							C3265.294,2223.239,3247.838,2205.781,3226.378,2205.781z"/>
					</g>
				</g>
				<g>
					<path style="fill:#371A45;" d="M3598.287,2695.131h-522.476c-9.551,0-17.295-7.742-17.295-17.292v-558.611
						c0-4.993,2.158-9.741,5.918-13.027c54.087-47.226,245.947-48.828,318.359-22.825c0.327,0.117,0.649,0.244,0.967,0.381
						l174.36,74.741c34.897,14.907,57.461,49.116,57.461,87.146v432.195C3615.582,2687.389,3607.838,2695.131,3598.287,2695.131z
						 M3093.106,2660.546h487.886v-414.902c0-24.155-14.316-45.881-36.475-55.347l-173.887-74.539
						c-65.459-23.201-228.262-19.199-277.524,12.122V2660.546z"/>
				</g>
				<g>
					<g>
						<path style="fill:#371A45;" d="M3370.279,2643.588c0,8.225,0.825,34.25,6.67,34.25s6.67-26.035,6.67-34.25
							c0-477.803-6.67-494.248-6.67-494.248S3370.279,2164.413,3370.279,2643.588z"/>
					</g>
				</g>
			</g>
		</g>
		<g>
			<g>
				<path style="fill:#FFFFFF;" d="M611.361,2069.496c0,0,42.496,12.499,28.497,62.494c-13.999,49.995-15.499,70.493-6.999,85.492
					c0,0-41.996-14.999-38.996-54.495C596.862,2123.491,626.359,2098.493,611.361,2069.496z"/>
			</g>
			<g>
				<path style="fill:#FFFFFF;" d="M685.854,2025c0,0,31.997,33.997,2.5,71.493s-19.998,80.993,24.498,99.491
					c0,0-6.391-32.526,18.998-75.493C764.347,2065.496,685.854,2025,685.854,2025z"/>
			</g>
			<g>
				<path style="fill:#FFFFFF;" d="M792.844,2052.498c0,0,10.999,23.998-10.999,55.495s0,58.994,0,58.994
					s27.997-21.498,39.996-51.995C833.84,2084.494,792.844,2052.498,792.844,2052.498z"/>
			</g>
			<g>
				<g>
					<path style="fill:#FFFFFF;" d="M520.578,2529.334c-23.781,0-45.26-7.4-61.811-21.543c-20.564-17.582-31.89-44.023-31.89-74.454
						s11.325-56.872,31.89-74.454c20.863-17.84,49.56-24.982,80.858-20.014c51.997,8.191,89.734,47.919,89.734,94.468
						c0,46.549-37.737,86.277-89.734,94.468C533.151,2528.831,526.783,2529.334,520.578,2529.334z M520.332,2403.311
						c-6.574,0-13.534,1.342-18.684,5.742c-5.66,4.833-8.776,13.458-8.776,24.285s3.117,19.451,8.776,24.285
						c7.646,6.532,19.287,6.328,27.701,4.998c21.291-3.357,34.016-17.524,34.016-29.282c0-11.759-12.725-25.925-34.016-29.282
						C526.607,2403.621,523.513,2403.311,520.332,2403.311z"/>
				</g>
				<g style="opacity:0.3;">
					<path style="fill:#371A45;" d="M539.625,2338.87c-31.298-4.968-59.994,2.174-80.858,20.014c-0.17,0.145-0.312,0.316-0.48,0.463
						c21.414,9.108,38.955,25.145,48.571,46.556c4.199-1.865,8.913-2.591,13.474-2.591c3.181,0,6.275,0.311,9.017,0.744
						c21.291,3.357,34.016,17.524,34.016,29.282c0,11.759-12.725,25.925-34.016,29.282c-4.996,0.79-11.125,1.146-16.885-0.035
						c-5.103,22.094-18.288,42.808-36.304,56.624c13.209,6.628,28.259,10.125,44.419,10.125c6.204,0,12.573-0.504,19.047-1.529
						c51.997-8.191,89.734-47.919,89.734-94.468C629.359,2386.789,591.622,2347.06,539.625,2338.87z"/>
				</g>
				<g>
					<path style="fill:#371A45;" d="M520.577,2546.562c-28.101,0-53.345-8.877-73.003-25.672
						c-24.458-20.918-37.925-52.009-37.925-87.553c0-35.545,13.467-66.633,37.92-87.547c24.795-21.199,58.457-29.697,94.756-23.936
						c60.405,9.517,104.263,56.401,104.263,111.482c0,55.08-43.857,101.965-104.282,111.484
						C535.015,2545.976,527.701,2546.562,520.577,2546.562z M520.572,2354.562c-19.658,0-37.232,5.977-50.61,17.415
						c-16.675,14.258-25.859,36.05-25.859,61.36c0,25.31,9.185,47.104,25.859,61.362c16.914,14.455,40.938,20.212,66.968,16.091
						c43.584-6.865,75.205-39.438,75.205-77.453c0-38.015-31.621-70.589-75.19-77.451
						C531.363,2355,525.889,2354.562,520.572,2354.562z M520.357,2480.595c-12.056,0-22.251-3.343-29.902-9.876
						c-9.546-8.154-14.81-21.431-14.81-37.383c0-15.948,5.259-29.224,14.814-37.383c10.029-8.567,24.517-11.602,41.572-8.916
						c27.681,4.365,48.56,24.268,48.56,46.299c0,22.031-20.879,41.933-48.564,46.299
						C527.974,2480.278,524.078,2480.595,520.357,2480.595z M520.333,2420.537c-4.136,0-6.587,0.835-7.5,1.616
						c-0.757,0.647-2.734,3.926-2.734,11.184c0,7.26,1.973,10.534,2.734,11.184c1.206,1.025,5.449,2.405,13.823,1.084
						c14.111-2.226,19.341-10.325,19.482-12.302c-0.142-1.909-5.376-10.01-19.473-12.231
						C524.415,2420.717,522.286,2420.537,520.333,2420.537z"/>
				</g>
			</g>
			<g>
				<g>
					<path style="fill:#FFFFFF;" d="M907.537,2352.99c-11.542,83.916-32.429,161.247-57.698,235.478H618.86
						c-25.375-74.542-46.326-152.207-57.844-236.521c-2.76-20.219,10.37-39.348,30.202-44.146
						c115.431-27.917,229.256-11.103,285.073,0.844C896.657,2313.009,910.378,2332.354,907.537,2352.99z"/>
				</g>
				<g style="opacity:0.3;">
					<path style="fill:#371A45;" d="M898.851,2322.441c1.772,22.507,0.645,45.905-3.861,69.427
						c-2.516,13.131-5.141,26.161-7.863,39.099c-13.305,63.242-56.822,106.729-106.114,106.729h-68.657
						c-49.292,0-92.808-43.487-106.114-106.73c-2.72-12.932-5.343-25.958-7.858-39.083c-5.566-29.045-5.942-57.92-2.118-85.186
						c-1.684,0.388-3.363,0.696-5.049,1.103c-19.832,4.798-32.962,23.927-30.202,44.146c11.518,84.314,32.47,161.979,57.844,236.521
						h230.979c25.269-74.232,46.156-151.562,57.698-235.478C909.098,2341.656,905.64,2330.729,898.851,2322.441z"/>
				</g>
				<g>
					<path style="fill:#371A45;" d="M849.84,2605.695H618.858c-7.373,0-13.931-4.695-16.309-11.677
						c-29.463-86.56-48.081-162.739-58.604-239.739c-3.97-29.119,14.609-56.296,43.218-63.223
						c118.149-28.574,234.116-11.802,292.729,0.742c29.116,6.24,48.75,34.151,44.707,63.538l0,0
						c-10.537,76.641-29.111,152.483-58.452,238.684C863.77,2601,857.213,2605.695,849.84,2605.695z M631.236,2571.242h206.226
						c26.353-79.26,43.252-149.661,53.008-220.598c0-0.002,0-0.002,0-0.005c1.602-11.621-6.216-22.668-17.788-25.151
						c-55.737-11.924-165.894-27.915-277.417-0.945c-11.182,2.708-18.731,13.723-17.178,25.076
						C587.823,2420.903,604.771,2491.63,631.236,2571.242z"/>
				</g>
				<g>
					<g>
						<path style="fill:#A55942;" d="M780.587,2372.963c-10.822-8.084-27.064-7.587-44.937,1.074l-1.357,0.674
							c-22.21,11.283-39.861,28.263-47.49,46.02c-5.619,13.084-6.044,26.504-0.853,38.983c2.727,6.6,7.368,11.983,13.429,15.432
							c5.231,3.028,10.895,4.827,16.767,5.399c7.709,0.75,15.717-0.617,23.703-4.143c20.055-8.908,38.132-30.873,47.73-57.294
							c0.005-0.052,0.01-0.101,0.01-0.101l0.502-1.394C794.844,2397.556,791.902,2381.464,780.587,2372.963z M759.152,2392.963
							c-6.309,3.92-12.497,11.44-15.997,22.522c-2.19,6.649-5.423,13.612-9.792,19.043c-4.378,5.584-9.693,9.706-14.457,11.841
							c-9.708,4.302-15.555,1.862-15.127,0.031c0.261-1.937,5.346-3.454,11.363-8.437c3.002-2.507,6.052-5.806,8.743-10.048
							c2.724-4.253,4.846-9.172,6.89-15.037c2.282-6.753,5.963-13.178,10.595-18.094c4.552-4.882,10.016-8.117,14.659-9.625
							c9.467-2.986,15.098-0.792,14.751,0.783C770.6,2387.707,765.417,2388.957,759.152,2392.963z"/>
					</g>
				</g>
			</g>
			<g>
				<g>
					<path style="fill:#FFFFFF;" d="M519.869,2588.45h438.962c0,0-8.003,72.989-106.994,72.989s-243.974,0-243.974,0
						S519.869,2648.445,519.869,2588.45z"/>
				</g>
				<g style="opacity:0.3;">
					<path style="fill:#371A45;" d="M519.869,2588.45h438.962c0,0-8.003,72.989-106.994,72.989s-243.974,0-243.974,0
						S519.869,2648.445,519.869,2588.45z"/>
				</g>
				<g>
					<path style="fill:#371A45;" d="M851.837,2678.666H607.862c-0.845,0-1.685-0.061-2.515-0.186
						c-4.194-0.618-102.705-16.018-102.705-90.031c0-9.514,7.715-17.227,17.227-17.227h438.96c4.898,0,9.561,2.083,12.827,5.728
						c3.267,3.647,4.829,8.511,4.297,13.376C972.603,2620.881,942.349,2678.666,851.837,2678.666z M609.298,2644.213h242.539
						c51.699,0,73.789-21.619,83.159-38.538H541.207C555.347,2633.454,601.519,2642.819,609.298,2644.213z"/>
				</g>
			</g>
		</g>
		<g>
			<path style="fill:#D19D71;" d="M3660.022,2798.086H339.978c-33.87,0-61.329-27.454-61.329-61.329v-11.462
				c0-32.947,26.037-60.011,58.966-61.283l1543.681-59.541c79.109-3.054,158.299-3.054,237.408,0l1543.681,59.541
				c32.929,1.271,58.966,28.336,58.966,61.283v11.462C3721.351,2770.633,3693.892,2798.086,3660.022,2798.086z"/>
		</g>
		<g style="opacity:0.6;">
			<path style="fill:#FFFFFF;" d="M3662.385,2669.012l-1543.682-59.541c-79.109-3.054-158.298-3.054-237.407,0l-1543.682,59.541
				c-32.93,1.271-58.967,28.336-58.967,61.283v11.462c0,3.156,0.315,6.23,0.774,9.258c4.358-28.6,28.423-50.854,58.193-52.003
				l1543.682-59.541c79.109-3.054,158.298-3.054,237.407,0l1543.682,59.541c29.771,1.149,53.835,23.403,58.193,52.003
				c0.459-3.027,0.774-6.102,0.774-9.258v-11.462C3721.353,2697.349,3695.315,2670.283,3662.385,2669.012z"/>
		</g>
		<g style="opacity:0.3;">
			<path style="fill:#371A45;" d="M3660.022,2741.446H339.978c-25.894,0-47.994-16.07-56.989-38.765
				c-2.784,7.009-4.341,14.631-4.341,22.614v11.462c0,33.875,27.459,61.329,61.329,61.329h3320.044
				c33.87,0,61.329-27.454,61.329-61.329v-11.462c0-7.983-1.556-15.605-4.34-22.614
				C3708.017,2725.376,3685.917,2741.446,3660.022,2741.446z"/>
		</g>
		<g>
			<path style="fill:#371A45;" d="M3660.02,2815.158H339.976c-43.232,0-78.403-35.171-78.403-78.401v-11.462
				c0-42.298,33.11-76.709,75.381-78.343l1543.682-59.541c79.209-3.054,159.526-3.057,238.726,0l1543.682,59.541
				c42.271,1.633,75.386,36.045,75.386,78.343v11.462C3738.428,2779.987,3703.253,2815.158,3660.02,2815.158z M2000.001,2619.264
				c-39.438,0-78.882,0.757-118.047,2.268l-1543.682,59.541c-23.862,0.923-42.549,20.347-42.549,44.221v11.462
				c0,24.402,19.849,44.255,44.253,44.255H3660.02c24.404,0,44.258-19.854,44.258-44.255v-11.462
				c0-23.875-18.691-43.299-42.554-44.221l-1543.682-59.541C2078.883,2620.021,2039.439,2619.264,2000.001,2619.264z"/>
		</g>
		<g>
			<g>
				<path style="fill:#979797;" d="M2833.443,1022.368H1132.902c-87.465,0-158.578,71.171-158.578,158.578v883.983
					c0,87.406,71.113,158.52,158.578,158.52h1700.541c87.406,0,158.52-71.114,158.52-158.52v-883.983
					C2991.963,1093.539,2920.849,1022.368,2833.443,1022.368z"/>
			</g>
			<g style="opacity:0.6;">
				<path style="fill:#FFFFFF;" d="M2833.442,1017.368h-1700.54c-87.466,0-158.579,71.171-158.579,158.578v46.892
					c0-87.407,71.113-158.578,158.579-158.578h1700.54c87.407,0,158.521,71.171,158.521,158.578v-46.892
					C2991.963,1088.539,2920.85,1017.368,2833.442,1017.368z"/>
			</g>
			<g>
				<path style="fill:#371A45;" d="M2833.443,2240.522H1132.901c-96.855,0-175.654-78.77-175.654-175.593v-883.982
					c0-96.856,78.799-175.652,175.654-175.652h1700.542c96.821,0,175.596,78.796,175.596,175.652v883.982
					C3009.039,2161.752,2930.264,2240.522,2833.443,2240.522z M1132.901,1039.44c-78.027,0-141.504,63.479-141.504,141.506v883.982
					c0,77.996,63.476,141.448,141.504,141.448h1700.542c77.993,0,141.445-63.452,141.445-141.448v-883.982
					c0-78.027-63.452-141.506-141.445-141.506H1132.901z"/>
			</g>
		</g>
		<g>
			<g>
				<g>
					<defs>
						<path id="SVGID_1_" d="M2849.26,1219.536v806.744c0,30.078-24.388,54.466-54.466,54.466H1171.551
							c-29.985,0-54.524-24.539-54.524-54.524v-802.674c0-32.163,26.316-58.478,58.478-58.478h1619.289
							C2824.872,1165.071,2849.26,1189.458,2849.26,1219.536z"/>
					</defs>
					<clipPath id="SVGID_00000094609499298771932060000008809571478886966178_">
						<use xlink:href="#SVGID_1_"  style="overflow:visible;"/>
					</clipPath>
					
						<rect x="1117.027" y="1165.071" style="clip-path:url(#SVGID_00000094609499298771932060000008809571478886966178_);fill:#D3EEF5;" width="1732.233" height="2.094"/>
					
						<rect x="1117.027" y="1167.165" style="clip-path:url(#SVGID_00000094609499298771932060000008809571478886966178_);fill:#D2EEF5;" width="1732.233" height="5.582"/>
					
						<rect x="1117.027" y="1172.747" style="clip-path:url(#SVGID_00000094609499298771932060000008809571478886966178_);fill:#D1EDF5;" width="1732.233" height="5.582"/>
					
						<rect x="1117.027" y="1178.328" style="clip-path:url(#SVGID_00000094609499298771932060000008809571478886966178_);fill:#D0EDF5;" width="1732.233" height="5.582"/>
					
						<rect x="1117.027" y="1183.91" style="clip-path:url(#SVGID_00000094609499298771932060000008809571478886966178_);fill:#CFECF4;" width="1732.233" height="5.582"/>
					
						<rect x="1117.027" y="1189.492" style="clip-path:url(#SVGID_00000094609499298771932060000008809571478886966178_);fill:#CEECF4;" width="1732.233" height="5.582"/>
					
						<rect x="1117.027" y="1195.074" style="clip-path:url(#SVGID_00000094609499298771932060000008809571478886966178_);fill:#CDECF4;" width="1732.233" height="5.582"/>
					
						<rect x="1117.027" y="1200.655" style="clip-path:url(#SVGID_00000094609499298771932060000008809571478886966178_);fill:#CCEBF4;" width="1732.233" height="5.582"/>
					
						<rect x="1117.027" y="1206.237" style="clip-path:url(#SVGID_00000094609499298771932060000008809571478886966178_);fill:#CBEBF3;" width="1732.233" height="5.582"/>
					
						<rect x="1117.027" y="1211.819" style="clip-path:url(#SVGID_00000094609499298771932060000008809571478886966178_);fill:#CAEAF3;" width="1732.233" height="5.582"/>
					
						<rect x="1117.027" y="1217.401" style="clip-path:url(#SVGID_00000094609499298771932060000008809571478886966178_);fill:#C9EAF3;" width="1732.233" height="5.582"/>
					
						<rect x="1117.027" y="1222.982" style="clip-path:url(#SVGID_00000094609499298771932060000008809571478886966178_);fill:#C8EAF3;" width="1732.233" height="5.582"/>
					
						<rect x="1117.027" y="1228.564" style="clip-path:url(#SVGID_00000094609499298771932060000008809571478886966178_);fill:#C7E9F3;" width="1732.233" height="5.582"/>
					
						<rect x="1117.027" y="1234.146" style="clip-path:url(#SVGID_00000094609499298771932060000008809571478886966178_);fill:#C6E9F2;" width="1732.233" height="5.582"/>
					
						<rect x="1117.027" y="1239.727" style="clip-path:url(#SVGID_00000094609499298771932060000008809571478886966178_);fill:#C5E9F2;" width="1732.233" height="5.582"/>
					
						<rect x="1117.027" y="1245.309" style="clip-path:url(#SVGID_00000094609499298771932060000008809571478886966178_);fill:#C4E8F2;" width="1732.233" height="5.582"/>
					
						<rect x="1117.027" y="1250.891" style="clip-path:url(#SVGID_00000094609499298771932060000008809571478886966178_);fill:#C3E8F2;" width="1732.233" height="5.582"/>
					
						<rect x="1117.027" y="1256.473" style="clip-path:url(#SVGID_00000094609499298771932060000008809571478886966178_);fill:#C2E7F1;" width="1732.233" height="5.582"/>
					
						<rect x="1117.027" y="1262.054" style="clip-path:url(#SVGID_00000094609499298771932060000008809571478886966178_);fill:#C1E7F1;" width="1732.233" height="5.582"/>
					
						<rect x="1117.027" y="1267.636" style="clip-path:url(#SVGID_00000094609499298771932060000008809571478886966178_);fill:#C0E7F1;" width="1732.233" height="5.582"/>
					
						<rect x="1117.027" y="1273.218" style="clip-path:url(#SVGID_00000094609499298771932060000008809571478886966178_);fill:#BFE6F1;" width="1732.233" height="5.582"/>
					
						<rect x="1117.027" y="1278.8" style="clip-path:url(#SVGID_00000094609499298771932060000008809571478886966178_);fill:#BEE6F1;" width="1732.233" height="5.582"/>
					
						<rect x="1117.027" y="1284.381" style="clip-path:url(#SVGID_00000094609499298771932060000008809571478886966178_);fill:#BDE5F0;" width="1732.233" height="5.582"/>
					
						<rect x="1117.027" y="1289.963" style="clip-path:url(#SVGID_00000094609499298771932060000008809571478886966178_);fill:#BCE5F0;" width="1732.233" height="5.582"/>
					
						<rect x="1117.027" y="1295.545" style="clip-path:url(#SVGID_00000094609499298771932060000008809571478886966178_);fill:#BBE5F0;" width="1732.233" height="5.582"/>
					
						<rect x="1117.027" y="1301.126" style="clip-path:url(#SVGID_00000094609499298771932060000008809571478886966178_);fill:#BAE4F0;" width="1732.233" height="5.582"/>
					
						<rect x="1117.027" y="1306.708" style="clip-path:url(#SVGID_00000094609499298771932060000008809571478886966178_);fill:#B9E4EF;" width="1732.233" height="5.582"/>
					
						<rect x="1117.027" y="1312.29" style="clip-path:url(#SVGID_00000094609499298771932060000008809571478886966178_);fill:#B8E3EF;" width="1732.233" height="5.582"/>
					
						<rect x="1117.027" y="1317.872" style="clip-path:url(#SVGID_00000094609499298771932060000008809571478886966178_);fill:#B7E3EF;" width="1732.233" height="5.582"/>
					
						<rect x="1117.027" y="1323.453" style="clip-path:url(#SVGID_00000094609499298771932060000008809571478886966178_);fill:#B6E3EF;" width="1732.233" height="5.582"/>
					
						<rect x="1117.027" y="1329.035" style="clip-path:url(#SVGID_00000094609499298771932060000008809571478886966178_);fill:#B5E2EE;" width="1732.233" height="5.582"/>
					
						<rect x="1117.027" y="1334.617" style="clip-path:url(#SVGID_00000094609499298771932060000008809571478886966178_);fill:#B4E2EE;" width="1732.233" height="5.582"/>
					
						<rect x="1117.027" y="1340.198" style="clip-path:url(#SVGID_00000094609499298771932060000008809571478886966178_);fill:#B3E2EE;" width="1732.233" height="5.582"/>
					
						<rect x="1117.027" y="1345.78" style="clip-path:url(#SVGID_00000094609499298771932060000008809571478886966178_);fill:#B2E1EE;" width="1732.233" height="5.582"/>
					
						<rect x="1117.027" y="1351.362" style="clip-path:url(#SVGID_00000094609499298771932060000008809571478886966178_);fill:#B1E1EE;" width="1732.233" height="5.582"/>
					
						<rect x="1117.027" y="1356.944" style="clip-path:url(#SVGID_00000094609499298771932060000008809571478886966178_);fill:#B0E0ED;" width="1732.233" height="5.582"/>
					
						<rect x="1117.027" y="1362.525" style="clip-path:url(#SVGID_00000094609499298771932060000008809571478886966178_);fill:#AFE0ED;" width="1732.233" height="5.582"/>
					
						<rect x="1117.027" y="1368.107" style="clip-path:url(#SVGID_00000094609499298771932060000008809571478886966178_);fill:#AEE0ED;" width="1732.233" height="5.582"/>
					
						<rect x="1117.027" y="1373.689" style="clip-path:url(#SVGID_00000094609499298771932060000008809571478886966178_);fill:#ADDFED;" width="1732.233" height="5.582"/>
					
						<rect x="1117.027" y="1379.271" style="clip-path:url(#SVGID_00000094609499298771932060000008809571478886966178_);fill:#ACDFEC;" width="1732.233" height="5.582"/>
					
						<rect x="1117.027" y="1384.852" style="clip-path:url(#SVGID_00000094609499298771932060000008809571478886966178_);fill:#ABDEEC;" width="1732.233" height="5.582"/>
					
						<rect x="1117.027" y="1390.434" style="clip-path:url(#SVGID_00000094609499298771932060000008809571478886966178_);fill:#AADEEC;" width="1732.233" height="5.582"/>
					
						<rect x="1117.027" y="1396.016" style="clip-path:url(#SVGID_00000094609499298771932060000008809571478886966178_);fill:#A9DEEC;" width="1732.233" height="5.582"/>
					
						<rect x="1117.027" y="1401.598" style="clip-path:url(#SVGID_00000094609499298771932060000008809571478886966178_);fill:#A8DDEC;" width="1732.233" height="5.582"/>
					
						<rect x="1117.027" y="1407.179" style="clip-path:url(#SVGID_00000094609499298771932060000008809571478886966178_);fill:#A7DDEB;" width="1732.233" height="5.582"/>
					
						<rect x="1117.027" y="1412.761" style="clip-path:url(#SVGID_00000094609499298771932060000008809571478886966178_);fill:#A6DCEB;" width="1732.233" height="5.582"/>
					
						<rect x="1117.027" y="1418.343" style="clip-path:url(#SVGID_00000094609499298771932060000008809571478886966178_);fill:#A5DCEB;" width="1732.233" height="5.582"/>
					
						<rect x="1117.027" y="1423.924" style="clip-path:url(#SVGID_00000094609499298771932060000008809571478886966178_);fill:#A4DCEB;" width="1732.233" height="5.582"/>
					
						<rect x="1117.027" y="1429.506" style="clip-path:url(#SVGID_00000094609499298771932060000008809571478886966178_);fill:#A3DBEA;" width="1732.233" height="5.582"/>
					
						<rect x="1117.027" y="1435.088" style="clip-path:url(#SVGID_00000094609499298771932060000008809571478886966178_);fill:#A2DBEA;" width="1732.233" height="5.582"/>
					
						<rect x="1117.027" y="1440.67" style="clip-path:url(#SVGID_00000094609499298771932060000008809571478886966178_);fill:#A1DBEA;" width="1732.233" height="5.582"/>
					
						<rect x="1117.027" y="1446.251" style="clip-path:url(#SVGID_00000094609499298771932060000008809571478886966178_);fill:#A0DAEA;" width="1732.233" height="5.582"/>
					
						<rect x="1117.027" y="1451.833" style="clip-path:url(#SVGID_00000094609499298771932060000008809571478886966178_);fill:#9FDAEA;" width="1732.233" height="5.582"/>
					
						<rect x="1117.027" y="1457.415" style="clip-path:url(#SVGID_00000094609499298771932060000008809571478886966178_);fill:#9ED9E9;" width="1732.233" height="5.582"/>
					
						<rect x="1117.027" y="1462.996" style="clip-path:url(#SVGID_00000094609499298771932060000008809571478886966178_);fill:#9DD9E9;" width="1732.233" height="5.582"/>
					
						<rect x="1117.027" y="1468.578" style="clip-path:url(#SVGID_00000094609499298771932060000008809571478886966178_);fill:#9CD9E9;" width="1732.233" height="5.582"/>
					
						<rect x="1117.027" y="1474.16" style="clip-path:url(#SVGID_00000094609499298771932060000008809571478886966178_);fill:#9BD8E9;" width="1732.233" height="5.582"/>
					
						<rect x="1117.027" y="1479.742" style="clip-path:url(#SVGID_00000094609499298771932060000008809571478886966178_);fill:#9AD8E8;" width="1732.233" height="5.582"/>
					
						<rect x="1117.027" y="1485.323" style="clip-path:url(#SVGID_00000094609499298771932060000008809571478886966178_);fill:#99D7E8;" width="1732.233" height="5.582"/>
					
						<rect x="1117.027" y="1490.905" style="clip-path:url(#SVGID_00000094609499298771932060000008809571478886966178_);fill:#98D7E8;" width="1732.233" height="5.582"/>
					
						<rect x="1117.027" y="1496.487" style="clip-path:url(#SVGID_00000094609499298771932060000008809571478886966178_);fill:#97D7E8;" width="1732.233" height="5.582"/>
					
						<rect x="1117.027" y="1502.069" style="clip-path:url(#SVGID_00000094609499298771932060000008809571478886966178_);fill:#96D6E8;" width="1732.233" height="5.582"/>
					
						<rect x="1117.027" y="1507.65" style="clip-path:url(#SVGID_00000094609499298771932060000008809571478886966178_);fill:#95D6E7;" width="1732.233" height="5.582"/>
					
						<rect x="1117.027" y="1513.232" style="clip-path:url(#SVGID_00000094609499298771932060000008809571478886966178_);fill:#94D5E7;" width="1732.233" height="5.582"/>
					
						<rect x="1117.027" y="1518.814" style="clip-path:url(#SVGID_00000094609499298771932060000008809571478886966178_);fill:#93D5E7;" width="1732.233" height="5.582"/>
					
						<rect x="1117.027" y="1524.396" style="clip-path:url(#SVGID_00000094609499298771932060000008809571478886966178_);fill:#92D5E7;" width="1732.233" height="5.582"/>
					
						<rect x="1117.027" y="1529.977" style="clip-path:url(#SVGID_00000094609499298771932060000008809571478886966178_);fill:#91D4E6;" width="1732.233" height="5.582"/>
					
						<rect x="1117.027" y="1535.559" style="clip-path:url(#SVGID_00000094609499298771932060000008809571478886966178_);fill:#90D4E6;" width="1732.233" height="5.582"/>
					
						<rect x="1117.027" y="1541.141" style="clip-path:url(#SVGID_00000094609499298771932060000008809571478886966178_);fill:#8FD3E6;" width="1732.233" height="5.582"/>
					
						<rect x="1117.027" y="1546.723" style="clip-path:url(#SVGID_00000094609499298771932060000008809571478886966178_);fill:#8ED3E6;" width="1732.233" height="5.582"/>
					
						<rect x="1117.027" y="1552.304" style="clip-path:url(#SVGID_00000094609499298771932060000008809571478886966178_);fill:#8DD3E5;" width="1732.233" height="5.582"/>
					
						<rect x="1117.027" y="1557.886" style="clip-path:url(#SVGID_00000094609499298771932060000008809571478886966178_);fill:#8CD2E5;" width="1732.233" height="5.582"/>
					
						<rect x="1117.027" y="1563.468" style="clip-path:url(#SVGID_00000094609499298771932060000008809571478886966178_);fill:#8BD2E5;" width="1732.233" height="5.582"/>
					
						<rect x="1117.027" y="1569.049" style="clip-path:url(#SVGID_00000094609499298771932060000008809571478886966178_);fill:#8AD1E5;" width="1732.233" height="5.582"/>
					
						<rect x="1117.027" y="1574.631" style="clip-path:url(#SVGID_00000094609499298771932060000008809571478886966178_);fill:#89D1E5;" width="1732.233" height="5.582"/>
					
						<rect x="1117.027" y="1580.213" style="clip-path:url(#SVGID_00000094609499298771932060000008809571478886966178_);fill:#88D1E4;" width="1732.233" height="5.582"/>
					
						<rect x="1117.027" y="1585.795" style="clip-path:url(#SVGID_00000094609499298771932060000008809571478886966178_);fill:#87D0E4;" width="1732.233" height="5.582"/>
					
						<rect x="1117.027" y="1591.376" style="clip-path:url(#SVGID_00000094609499298771932060000008809571478886966178_);fill:#86D0E4;" width="1732.233" height="5.582"/>
					
						<rect x="1117.027" y="1596.958" style="clip-path:url(#SVGID_00000094609499298771932060000008809571478886966178_);fill:#85D0E4;" width="1732.233" height="5.582"/>
					
						<rect x="1117.027" y="1602.54" style="clip-path:url(#SVGID_00000094609499298771932060000008809571478886966178_);fill:#84CFE3;" width="1732.233" height="5.582"/>
					
						<rect x="1117.027" y="1608.121" style="clip-path:url(#SVGID_00000094609499298771932060000008809571478886966178_);fill:#83CFE3;" width="1732.233" height="5.582"/>
					
						<rect x="1117.027" y="1613.703" style="clip-path:url(#SVGID_00000094609499298771932060000008809571478886966178_);fill:#82CEE3;" width="1732.233" height="5.582"/>
					
						<rect x="1117.027" y="1619.285" style="clip-path:url(#SVGID_00000094609499298771932060000008809571478886966178_);fill:#81CEE3;" width="1732.233" height="5.582"/>
					
						<rect x="1117.027" y="1624.867" style="clip-path:url(#SVGID_00000094609499298771932060000008809571478886966178_);fill:#80CEE3;" width="1732.233" height="5.582"/>
					
						<rect x="1117.027" y="1630.448" style="clip-path:url(#SVGID_00000094609499298771932060000008809571478886966178_);fill:#7FCDE2;" width="1732.233" height="5.582"/>
					
						<rect x="1117.027" y="1636.03" style="clip-path:url(#SVGID_00000094609499298771932060000008809571478886966178_);fill:#7ECDE2;" width="1732.233" height="5.582"/>
					
						<rect x="1117.027" y="1641.612" style="clip-path:url(#SVGID_00000094609499298771932060000008809571478886966178_);fill:#7DCCE2;" width="1732.233" height="5.582"/>
					
						<rect x="1117.027" y="1647.194" style="clip-path:url(#SVGID_00000094609499298771932060000008809571478886966178_);fill:#7CCCE2;" width="1732.233" height="5.582"/>
					
						<rect x="1117.027" y="1652.775" style="clip-path:url(#SVGID_00000094609499298771932060000008809571478886966178_);fill:#7BCCE1;" width="1732.233" height="5.582"/>
					
						<rect x="1117.027" y="1658.357" style="clip-path:url(#SVGID_00000094609499298771932060000008809571478886966178_);fill:#7ACBE1;" width="1732.233" height="5.582"/>
					
						<rect x="1117.027" y="1663.939" style="clip-path:url(#SVGID_00000094609499298771932060000008809571478886966178_);fill:#79CBE1;" width="1732.233" height="5.582"/>
					
						<rect x="1117.027" y="1669.521" style="clip-path:url(#SVGID_00000094609499298771932060000008809571478886966178_);fill:#78CAE1;" width="1732.233" height="5.582"/>
					
						<rect x="1117.027" y="1675.102" style="clip-path:url(#SVGID_00000094609499298771932060000008809571478886966178_);fill:#77CAE0;" width="1732.233" height="5.582"/>
					
						<rect x="1117.027" y="1680.684" style="clip-path:url(#SVGID_00000094609499298771932060000008809571478886966178_);fill:#76CAE0;" width="1732.233" height="5.582"/>
					
						<rect x="1117.027" y="1686.266" style="clip-path:url(#SVGID_00000094609499298771932060000008809571478886966178_);fill:#75C9E0;" width="1732.233" height="5.582"/>
					
						<rect x="1117.027" y="1691.847" style="clip-path:url(#SVGID_00000094609499298771932060000008809571478886966178_);fill:#74C9E0;" width="1732.233" height="5.582"/>
					
						<rect x="1117.027" y="1697.429" style="clip-path:url(#SVGID_00000094609499298771932060000008809571478886966178_);fill:#73C8E0;" width="1732.233" height="5.582"/>
					
						<rect x="1117.027" y="1703.011" style="clip-path:url(#SVGID_00000094609499298771932060000008809571478886966178_);fill:#72C8DF;" width="1732.233" height="5.582"/>
					
						<rect x="1117.027" y="1708.593" style="clip-path:url(#SVGID_00000094609499298771932060000008809571478886966178_);fill:#71C8DF;" width="1732.233" height="5.582"/>
					
						<rect x="1117.027" y="1714.174" style="clip-path:url(#SVGID_00000094609499298771932060000008809571478886966178_);fill:#70C7DF;" width="1732.233" height="5.582"/>
					
						<rect x="1117.027" y="1719.756" style="clip-path:url(#SVGID_00000094609499298771932060000008809571478886966178_);fill:#6FC7DF;" width="1732.233" height="5.582"/>
					
						<rect x="1117.027" y="1725.338" style="clip-path:url(#SVGID_00000094609499298771932060000008809571478886966178_);fill:#6EC6DE;" width="1732.233" height="5.582"/>
					
						<rect x="1117.027" y="1730.92" style="clip-path:url(#SVGID_00000094609499298771932060000008809571478886966178_);fill:#6DC6DE;" width="1732.233" height="5.582"/>
					
						<rect x="1117.027" y="1736.501" style="clip-path:url(#SVGID_00000094609499298771932060000008809571478886966178_);fill:#6CC6DE;" width="1732.233" height="5.582"/>
					
						<rect x="1117.027" y="1742.083" style="clip-path:url(#SVGID_00000094609499298771932060000008809571478886966178_);fill:#6BC5DE;" width="1732.233" height="5.582"/>
					
						<rect x="1117.027" y="1747.665" style="clip-path:url(#SVGID_00000094609499298771932060000008809571478886966178_);fill:#6AC5DE;" width="1732.233" height="5.582"/>
					
						<rect x="1117.027" y="1753.246" style="clip-path:url(#SVGID_00000094609499298771932060000008809571478886966178_);fill:#69C4DD;" width="1732.233" height="5.582"/>
					
						<rect x="1117.027" y="1758.828" style="clip-path:url(#SVGID_00000094609499298771932060000008809571478886966178_);fill:#68C4DD;" width="1732.233" height="5.582"/>
					
						<rect x="1117.027" y="1764.41" style="clip-path:url(#SVGID_00000094609499298771932060000008809571478886966178_);fill:#67C4DD;" width="1732.233" height="5.582"/>
					
						<rect x="1117.027" y="1769.992" style="clip-path:url(#SVGID_00000094609499298771932060000008809571478886966178_);fill:#66C3DD;" width="1732.233" height="5.582"/>
					
						<rect x="1117.027" y="1775.573" style="clip-path:url(#SVGID_00000094609499298771932060000008809571478886966178_);fill:#65C3DC;" width="1732.233" height="5.582"/>
					
						<rect x="1117.027" y="1781.155" style="clip-path:url(#SVGID_00000094609499298771932060000008809571478886966178_);fill:#64C3DC;" width="1732.233" height="5.582"/>
					
						<rect x="1117.027" y="1786.737" style="clip-path:url(#SVGID_00000094609499298771932060000008809571478886966178_);fill:#63C2DC;" width="1732.233" height="5.582"/>
					
						<rect x="1117.027" y="1792.318" style="clip-path:url(#SVGID_00000094609499298771932060000008809571478886966178_);fill:#62C2DC;" width="1732.233" height="5.582"/>
					
						<rect x="1117.027" y="1797.9" style="clip-path:url(#SVGID_00000094609499298771932060000008809571478886966178_);fill:#61C1DB;" width="1732.233" height="5.582"/>
					
						<rect x="1117.027" y="1803.482" style="clip-path:url(#SVGID_00000094609499298771932060000008809571478886966178_);fill:#60C1DB;" width="1732.233" height="5.582"/>
					
						<rect x="1117.027" y="1809.064" style="clip-path:url(#SVGID_00000094609499298771932060000008809571478886966178_);fill:#5FC1DB;" width="1732.233" height="5.582"/>
					
						<rect x="1117.027" y="1814.645" style="clip-path:url(#SVGID_00000094609499298771932060000008809571478886966178_);fill:#5EC0DB;" width="1732.233" height="5.582"/>
					
						<rect x="1117.027" y="1820.227" style="clip-path:url(#SVGID_00000094609499298771932060000008809571478886966178_);fill:#5DC0DB;" width="1732.233" height="5.582"/>
					
						<rect x="1117.027" y="1825.809" style="clip-path:url(#SVGID_00000094609499298771932060000008809571478886966178_);fill:#5CBFDA;" width="1732.233" height="5.582"/>
					
						<rect x="1117.027" y="1831.391" style="clip-path:url(#SVGID_00000094609499298771932060000008809571478886966178_);fill:#5BBFDA;" width="1732.233" height="5.582"/>
					
						<rect x="1117.027" y="1836.972" style="clip-path:url(#SVGID_00000094609499298771932060000008809571478886966178_);fill:#5ABFDA;" width="1732.233" height="5.582"/>
					
						<rect x="1117.027" y="1842.554" style="clip-path:url(#SVGID_00000094609499298771932060000008809571478886966178_);fill:#59BEDA;" width="1732.233" height="5.582"/>
					
						<rect x="1117.027" y="1848.136" style="clip-path:url(#SVGID_00000094609499298771932060000008809571478886966178_);fill:#58BED9;" width="1732.233" height="5.582"/>
					
						<rect x="1117.027" y="1853.718" style="clip-path:url(#SVGID_00000094609499298771932060000008809571478886966178_);fill:#57BDD9;" width="1732.233" height="5.582"/>
					
						<rect x="1117.027" y="1859.299" style="clip-path:url(#SVGID_00000094609499298771932060000008809571478886966178_);fill:#56BDD9;" width="1732.233" height="5.582"/>
					
						<rect x="1117.027" y="1864.881" style="clip-path:url(#SVGID_00000094609499298771932060000008809571478886966178_);fill:#55BDD9;" width="1732.233" height="5.582"/>
					
						<rect x="1117.027" y="1870.463" style="clip-path:url(#SVGID_00000094609499298771932060000008809571478886966178_);fill:#54BCD9;" width="1732.233" height="5.582"/>
					
						<rect x="1117.027" y="1876.044" style="clip-path:url(#SVGID_00000094609499298771932060000008809571478886966178_);fill:#53BCD8;" width="1732.233" height="5.582"/>
					
						<rect x="1117.027" y="1881.626" style="clip-path:url(#SVGID_00000094609499298771932060000008809571478886966178_);fill:#52BBD8;" width="1732.233" height="5.582"/>
					
						<rect x="1117.027" y="1887.208" style="clip-path:url(#SVGID_00000094609499298771932060000008809571478886966178_);fill:#51BBD8;" width="1732.233" height="5.582"/>
					
						<rect x="1117.027" y="1892.79" style="clip-path:url(#SVGID_00000094609499298771932060000008809571478886966178_);fill:#50BBD8;" width="1732.233" height="5.582"/>
					
						<rect x="1117.027" y="1898.371" style="clip-path:url(#SVGID_00000094609499298771932060000008809571478886966178_);fill:#4EBAD7;" width="1732.233" height="5.582"/>
					
						<rect x="1117.027" y="1903.953" style="clip-path:url(#SVGID_00000094609499298771932060000008809571478886966178_);fill:#4DBAD7;" width="1732.233" height="5.582"/>
					
						<rect x="1117.027" y="1909.535" style="clip-path:url(#SVGID_00000094609499298771932060000008809571478886966178_);fill:#4CB9D7;" width="1732.233" height="5.582"/>
					
						<rect x="1117.027" y="1915.116" style="clip-path:url(#SVGID_00000094609499298771932060000008809571478886966178_);fill:#4BB9D7;" width="1732.233" height="5.582"/>
					
						<rect x="1117.027" y="1920.698" style="clip-path:url(#SVGID_00000094609499298771932060000008809571478886966178_);fill:#4AB9D6;" width="1732.233" height="5.582"/>
					
						<rect x="1117.027" y="1926.28" style="clip-path:url(#SVGID_00000094609499298771932060000008809571478886966178_);fill:#49B8D6;" width="1732.233" height="5.582"/>
					
						<rect x="1117.027" y="1931.862" style="clip-path:url(#SVGID_00000094609499298771932060000008809571478886966178_);fill:#48B8D6;" width="1732.233" height="5.582"/>
					
						<rect x="1117.027" y="1937.443" style="clip-path:url(#SVGID_00000094609499298771932060000008809571478886966178_);fill:#47B7D6;" width="1732.233" height="5.582"/>
					
						<rect x="1117.027" y="1943.025" style="clip-path:url(#SVGID_00000094609499298771932060000008809571478886966178_);fill:#46B7D6;" width="1732.233" height="5.582"/>
					
						<rect x="1117.027" y="1948.607" style="clip-path:url(#SVGID_00000094609499298771932060000008809571478886966178_);fill:#45B7D5;" width="1732.233" height="5.582"/>
					
						<rect x="1117.027" y="1954.189" style="clip-path:url(#SVGID_00000094609499298771932060000008809571478886966178_);fill:#44B6D5;" width="1732.233" height="5.582"/>
					
						<rect x="1117.027" y="1959.77" style="clip-path:url(#SVGID_00000094609499298771932060000008809571478886966178_);fill:#43B6D5;" width="1732.233" height="5.582"/>
					
						<rect x="1117.027" y="1965.352" style="clip-path:url(#SVGID_00000094609499298771932060000008809571478886966178_);fill:#42B5D5;" width="1732.233" height="5.582"/>
					
						<rect x="1117.027" y="1970.934" style="clip-path:url(#SVGID_00000094609499298771932060000008809571478886966178_);fill:#41B5D4;" width="1732.233" height="5.582"/>
					
						<rect x="1117.027" y="1976.516" style="clip-path:url(#SVGID_00000094609499298771932060000008809571478886966178_);fill:#40B5D4;" width="1732.233" height="5.582"/>
					
						<rect x="1117.027" y="1982.097" style="clip-path:url(#SVGID_00000094609499298771932060000008809571478886966178_);fill:#3FB4D4;" width="1732.233" height="5.582"/>
					
						<rect x="1117.027" y="1987.679" style="clip-path:url(#SVGID_00000094609499298771932060000008809571478886966178_);fill:#3EB4D4;" width="1732.233" height="5.582"/>
					
						<rect x="1117.027" y="1993.261" style="clip-path:url(#SVGID_00000094609499298771932060000008809571478886966178_);fill:#3DB3D4;" width="1732.233" height="5.582"/>
					
						<rect x="1117.027" y="1998.843" style="clip-path:url(#SVGID_00000094609499298771932060000008809571478886966178_);fill:#3CB3D3;" width="1732.233" height="5.582"/>
					
						<rect x="1117.027" y="2004.424" style="clip-path:url(#SVGID_00000094609499298771932060000008809571478886966178_);fill:#3BB3D3;" width="1732.233" height="5.582"/>
					
						<rect x="1117.027" y="2010.006" style="clip-path:url(#SVGID_00000094609499298771932060000008809571478886966178_);fill:#3AB2D3;" width="1732.233" height="5.582"/>
					
						<rect x="1117.027" y="2015.588" style="clip-path:url(#SVGID_00000094609499298771932060000008809571478886966178_);fill:#39B2D3;" width="1732.233" height="5.582"/>
					
						<rect x="1117.027" y="2021.169" style="clip-path:url(#SVGID_00000094609499298771932060000008809571478886966178_);fill:#38B1D2;" width="1732.233" height="5.582"/>
					
						<rect x="1117.027" y="2026.751" style="clip-path:url(#SVGID_00000094609499298771932060000008809571478886966178_);fill:#37B1D2;" width="1732.233" height="5.582"/>
					
						<rect x="1117.027" y="2032.333" style="clip-path:url(#SVGID_00000094609499298771932060000008809571478886966178_);fill:#36B1D2;" width="1732.233" height="5.582"/>
					
						<rect x="1117.027" y="2037.915" style="clip-path:url(#SVGID_00000094609499298771932060000008809571478886966178_);fill:#35B0D2;" width="1732.233" height="5.582"/>
					
						<rect x="1117.027" y="2043.496" style="clip-path:url(#SVGID_00000094609499298771932060000008809571478886966178_);fill:#34B0D1;" width="1732.233" height="5.582"/>
					
						<rect x="1117.027" y="2049.078" style="clip-path:url(#SVGID_00000094609499298771932060000008809571478886966178_);fill:#33AFD1;" width="1732.233" height="5.582"/>
					
						<rect x="1117.027" y="2054.66" style="clip-path:url(#SVGID_00000094609499298771932060000008809571478886966178_);fill:#32AFD1;" width="1732.233" height="5.582"/>
					
						<rect x="1117.027" y="2060.241" style="clip-path:url(#SVGID_00000094609499298771932060000008809571478886966178_);fill:#31AFD1;" width="1732.233" height="5.582"/>
					
						<rect x="1117.027" y="2065.823" style="clip-path:url(#SVGID_00000094609499298771932060000008809571478886966178_);fill:#30AED1;" width="1732.233" height="5.582"/>
					
						<rect x="1117.027" y="2071.405" style="clip-path:url(#SVGID_00000094609499298771932060000008809571478886966178_);fill:#2FAED0;" width="1732.233" height="5.582"/>
					
						<rect x="1117.027" y="2076.987" style="clip-path:url(#SVGID_00000094609499298771932060000008809571478886966178_);fill:#2EAED0;" width="1732.233" height="3.76"/>
				</g>
			</g>
			<g style="opacity:0.3;">
				<g>
					<path style="fill:#371A45;" d="M2552.806,2025.186H1413.539c-163.081,0-296.512-133.43-296.512-296.512v297.549
						c0,29.985,24.539,54.524,54.524,54.524h1623.243c30.078,0,54.466-24.388,54.466-54.466v-297.548
						C2849.26,1892.459,2716.533,2025.186,2552.806,2025.186z"/>
				</g>
			</g>
			<g>
				<path style="fill:#371A45;" d="M2794.796,2097.819H1171.548c-39.477,0-71.597-32.117-71.597-71.597v-802.673
					c0-41.66,33.892-75.552,75.552-75.552h1619.292c39.443,0,71.538,32.092,71.538,71.538v806.746
					C2866.334,2065.727,2834.239,2097.819,2794.796,2097.819z M1175.504,1182.143c-22.832,0-41.401,18.574-41.401,41.406v802.673
					c0,20.649,16.797,37.451,37.446,37.451h1623.247c20.615,0,37.388-16.775,37.388-37.392v-806.746
					c0-20.618-16.772-37.393-37.388-37.393H1175.504z"/>
			</g>
			<g style="opacity:0.3;">
				<path style="fill:#371A45;" d="M2833.443,2080.746H1132.902c-87.465,0-158.578-71.113-158.578-158.52v142.703
					c0,87.406,71.113,158.52,158.578,158.52h1700.541c87.406,0,158.52-71.114,158.52-158.52v-142.703
					C2991.963,2009.633,2920.849,2080.746,2833.443,2080.746z"/>
			</g>
		</g>
		<g>
			<g>
				<path style="fill:#FFCDA4;" d="M2494.959,1794.865c-14.633,0-28.458,3.333-40.896,9.14
					c-56.127-151.18-243.993-262.342-467.25-262.342c-220.255,0-406.055,108.2-464.904,256.268
					c-7.63-1.928-15.579-3.066-23.813-3.066c-53.548,0-96.958,43.41-96.958,96.958c0,53.554,43.41,96.964,96.958,96.964
					c6.649,0,13.135-0.679,19.406-1.951c53.583,153.95,243.377,267.759,469.312,267.759c228.571,0,420.043-116.515,471.025-273.2
					c11.433,4.744,23.964,7.392,37.122,7.392c53.548,0,96.964-43.41,96.964-96.964
					C2591.924,1838.275,2548.508,1794.865,2494.959,1794.865z"/>
			</g>
			<g style="opacity:0.3;">
				<path style="fill:#371A45;" d="M2439.998,1794.865c-13.31,0-25.886,3.333-37.199,9.14
					c-51.053-151.18-221.939-262.342-425.016-262.342c-200.347,0-369.352,108.2-422.883,256.268
					c-6.94-1.928-14.171-3.066-21.66-3.066c-48.708,0-88.195,43.41-88.195,96.958c0,53.554,39.486,96.964,88.195,96.964
					c6.048,0,11.947-0.679,17.651-1.951c48.74,153.95,221.379,267.759,426.891,267.759c207.911,0,382.076-116.515,428.45-273.2
					c10.4,4.744,21.798,7.392,33.766,7.392c48.708,0,88.2-43.41,88.2-96.964C2528.198,1838.275,2488.707,1794.865,2439.998,1794.865
					z"/>
			</g>
			<g>
				<path style="fill:#371A45;" d="M1986.812,2271.669c-222.471,0-417.49-108.738-480.527-266.103
					c-2.729,0.198-5.464,0.295-8.188,0.295c-62.876,0-114.033-51.157-114.033-114.038c0-62.876,51.157-114.031,114.033-114.031
					c4.438,0,8.935,0.283,13.467,0.845c32.09-70.859,93.35-134.128,173.926-179.263c87.349-48.926,191.548-74.785,301.323-74.785
					c217.305,0,410.273,105.117,476.855,257.617c10.161-2.935,20.63-4.414,31.294-4.414c62.881,0,114.038,51.155,114.038,114.031
					c0,62.881-51.157,114.038-114.038,114.038c-9.033,0-17.935-1.052-26.611-3.137
					C2406.549,2161.906,2211.636,2271.669,1986.812,2271.669z M1517.51,1969.76c7.139,0,13.687,4.495,16.113,11.462
					c52.525,150.906,238.882,256.301,453.189,256.301c106.484,0,210.703-26.809,293.452-75.486
					c80.425-47.309,137.72-113.34,161.338-185.925c1.475-4.526,4.771-8.232,9.097-10.225c4.316-1.995,9.272-2.092,13.682-0.261
					c9.741,4.041,20.029,6.089,30.581,6.089c44.053,0,79.888-35.84,79.888-79.893c0-44.048-35.835-79.885-79.888-79.885
					c-11.636,0-22.964,2.537-33.677,7.537c-4.316,2.019-9.282,2.134-13.701,0.325c-4.414-1.809-7.866-5.383-9.526-9.854
					c-54.912-147.91-240.474-251.211-451.245-251.211c-206.939,0-391.587,100.955-449.038,245.503
					c-3.169,7.964-11.724,12.344-20.049,10.247c-6.685-1.689-13.286-2.547-19.629-2.547c-44.048,0-79.883,35.837-79.883,79.885
					c0,44.053,35.835,79.893,79.883,79.893c5.352,0,10.737-0.542,16.011-1.614C1515.245,1969.872,1516.387,1969.76,1517.51,1969.76z
					"/>
			</g>
		</g>
		<g>
			<g>
				<path style="fill:#FFCDA4;" d="M1426.478,2254.596c0,0-176.66,85.81-198.458,204.729
					c-21.804,118.919,83.243,164.501,83.243,164.501h206.122L1426.478,2254.596z"/>
			</g>
			<g>
				<path style="fill:#371A45;" d="M1517.384,2640.898h-206.118c-2.339,0-4.653-0.481-6.797-1.411
					c-1.172-0.51-117.212-52.493-93.242-183.24c23.096-125.974,200.259-213.35,207.788-217.007c4.639-2.253,10.044-2.29,14.712-0.1
					c4.668,2.188,8.096,6.37,9.326,11.375l90.908,369.229c1.255,5.095,0.098,10.483-3.14,14.615
					C1527.584,2638.486,1522.632,2640.898,1517.384,2640.898z M1315.074,2606.752h180.523l-80.44-326.714
					c-44.624,25.259-154.409,95.452-170.347,182.366C1227.413,2557.294,1299.068,2598.766,1315.074,2606.752z"/>
			</g>
		</g>
		<g>
			<g>
				<path style="fill:#FFCDA4;" d="M2548.601,2278.966c0,0,176.66,80.143,198.458,191.217
					c21.804,111.069-83.243,153.648-83.243,153.648h-206.122L2548.601,2278.966z"/>
			</g>
			<g style="opacity:0.3;">
				<path style="fill:#371A45;" d="M1365.784,2529.831c-60.924,0-112.722-38.758-132.141-91.759
					c-2.388,6.956-4.301,14.04-5.624,21.252c-21.804,118.919,83.243,164.501,83.243,164.501h206.122l-23.142-93.994H1365.784z"/>
			</g>
			<g style="opacity:0.3;">
				<path style="fill:#371A45;" d="M2747.058,2470.183c-1.263-6.437-3.096-12.757-5.336-18.976c-1.111,2.868-2.31,5.654-3.591,8.35
					c-20.773,43.683-66.192,70.28-114.563,70.28h-141.099l-24.777,93.994h206.122
					C2663.815,2623.831,2768.862,2581.251,2747.058,2470.183z"/>
			</g>
			<g>
				<path style="fill:#371A45;" d="M2663.814,2640.903h-206.123c-5.298,0-10.293-2.456-13.525-6.653
					c-3.232-4.194-4.336-9.651-2.983-14.773l90.908-344.863c1.279-4.861,4.639-8.911,9.18-11.067
					c4.546-2.163,9.795-2.207,14.385-0.127c7.539,3.42,184.932,85.134,208.154,203.474c19.395,98.787-52.734,156.201-93.584,172.759
					C2668.189,2640.478,2666.011,2640.903,2663.814,2640.903z M2479.849,2606.757h180.347
					c15.537-7.312,87.212-46.152,70.107-133.286c-15.889-80.969-126.343-146.55-170.547-169.841L2479.849,2606.757z"/>
			</g>
		</g>
		<g>
			<g>
				<path style="fill:#9E6C4B;" d="M1643.243,1213.649c0,0,93.155-203.155,440.993-258.649l-31.716,65.405
					c0,0,136.757-13.872,265.588,63.919s230.899,97.615,230.899,97.615l-79.277,43.602l85.223,24.777l-68.378,32.703
					c0,0,51.533,35.676,86.216,106.034c34.688,70.358,59.459,86.216,59.459,86.216l-73.331,5.946c0,0,28.737,155.588-8.919,270.541
					l-29.73-31.71c0,0-97.115,289.365-327.027,408.284c-221.005,114.314-502.45,28.087-687.645-304.457
					c-15.672-28.139-25.596-59.152-28.975-91.181c-4.634-43.84-7.99-110.993,3.107-178.146c0,0-32.703,14.865-43.602,33.696
					c0,0-1.986-79.277,17.838-99.101l-53.514,24.777C1400.452,1513.919,1420.27,1268.155,1643.243,1213.649z"/>
			</g>
			<g style="opacity:0.3;">
				<path style="fill:#371A45;" d="M2405.811,1828.974c151.127-394.475,0-468.163,0-468.163
					c40.135,53.514,11.892,138.243,11.892,138.243c-50.541-178.378-330-208.851-330-208.851
					c33.446-33.446,120.406-55.743,120.406-55.743c-159.054-32.703-263.108,45.585-263.108,45.585l51.528-99.098
					c-192.75,49.549-235.357,198.198-235.357,198.198c-110-51.532-217.027,40.63-217.027,40.63
					c91.172-25.765,146.667-7.927,146.667-7.927c-184.324,8.919-254.683,176.397-254.683,176.397
					c10.899-18.831,43.602-33.696,43.602-33.696c-11.096,67.153-7.74,134.306-3.107,178.146
					c3.379,32.029,13.303,63.042,28.975,91.181c185.195,332.543,466.641,418.771,687.645,304.457
					c229.912-118.919,327.027-408.284,327.027-408.284C2499.459,1769.351,2405.811,1828.974,2405.811,1828.974z"/>
			</g>
			<g>
				<g style="opacity:0.6;">
					<path style="fill:#FFFFFF;" d="M2038.153,1030.811c0,0,166.981,33.035,295.811,110.826
						c59.233,35.767,112.773,59.255,153.371,74.221l61.672-33.919c0,0-102.068-19.824-230.899-97.615
						c-83.833-50.619-170.984-62.416-221.664-64.488L2038.153,1030.811z"/>
				</g>
				<g>
					<path style="fill:#FFFFFF;" d="M2486.862,1283.223c-0.094-0.065-0.287-0.203-0.287-0.203l68.378-32.703l-6.679-1.942
						l-62.688,34.478L2486.862,1283.223z"/>
				</g>
				<g>
					<path style="fill:#FFFFFF;" d="M1469.822,1546.455l-33.264,15.401c-0.711,15.109-0.43,26.388-0.43,26.388
						c5.063-8.75,14.826-16.617,23.836-22.562C1462.429,1557.497,1465.634,1550.641,1469.822,1546.455z"/>
				</g>
				<g style="opacity:0.6;">
					<path style="fill:#FFFFFF;" d="M1672.59,1247.838c0,0,73.082-165.051,384.669-227.789c-3.038,0.192-4.738,0.357-4.738,0.357
						L2084.236,955c-347.838,55.494-440.993,258.649-440.993,258.649c-222.973,54.507-242.791,300.27-242.791,300.27l33.037-15.296
						C1460.044,1414.876,1524.449,1284.051,1672.59,1247.838z"/>
				</g>
			</g>
			<g>
				<path style="fill:#371A45;" d="M1999.405,2193.09c-56.855,0.002-114.18-11.16-169.8-33.582
					c-132.139-53.271-249.336-166.46-338.926-327.329c-16.973-30.474-27.412-63.345-31.035-97.693
					c-3.94-37.283-6.895-90.2-1.514-146.055c-3.091,2.786-5.64,5.627-7.227,8.364c-3.828,6.616-11.606,9.885-18.994,7.991
					c-7.407-1.89-12.656-8.472-12.847-16.116c-0.303-11.946-0.376-40.415,4.331-66.56l-15.767,7.3
					c-5.498,2.544-11.948,1.987-16.938-1.487c-4.98-3.472-7.739-9.329-7.251-15.379c0.21-2.637,5.596-65.415,39.409-135.723
					c44.033-91.555,116.084-152.888,208.701-177.798c21.011-38.652,130.894-209.976,449.995-260.886
					c6.323-1.003,12.607,1.58,16.396,6.682c3.794,5.107,4.434,11.902,1.655,17.627l-19.321,39.853
					c48.501,0.129,149.189,8.552,246.655,67.41c124.37,75.093,224.355,95.273,225.347,95.469c7.051,1.382,12.49,7.029,13.594,14.126
					c1.108,7.097-2.339,14.131-8.633,17.59l-43.179,23.75l45.659,13.276c6.802,1.977,11.675,7.944,12.251,15.002
					s-3.262,13.738-9.648,16.795l-44.399,21.233c19.355,18.008,47.983,49.519,70.181,94.553
					c31.211,63.298,53.452,79.441,53.672,79.597c6.172,3.95,8.975,11.292,7.202,18.401c-1.768,7.112-8.042,12.192-15.342,12.783
					l-54.971,4.456c6.47,45.581,18.77,165.056-12.437,260.33c-1.88,5.73-6.641,10.046-12.529,11.352
					c-5.869,1.311-12.021-0.588-16.152-4.99l-10.938-11.665c-30.181,75.369-130.62,290.918-325.522,391.726
					C2137.286,2176.498,2068.702,2193.085,1999.405,2193.09z M1479.732,1537.475c3.691,0,7.354,1.196,10.386,3.523
					c5.005,3.835,7.485,10.115,6.46,16.333c-10.752,65.037-7.554,130.286-2.979,173.569c3.14,29.751,12.193,58.235,26.914,84.668
					c165.898,297.895,433.096,417.485,664.888,297.6c221.211-114.419,317.734-395.725,318.682-398.552
					c1.914-5.696,6.68-9.968,12.549-11.25c5.874-1.27,11.978,0.62,16.094,5.005l8.862,9.453
					c23.594-105.33,0.796-232.126,0.537-233.513c-0.874-4.749,0.303-9.646,3.242-13.479c2.935-3.833,7.358-6.243,12.168-6.633
					l38.33-3.108c-10.625-14.172-23.76-34.822-38.389-64.485c-32.124-65.171-80.171-99.233-80.649-99.57
					c-4.98-3.477-7.749-9.348-7.256-15.403c0.498-6.052,4.155-11.396,9.634-14.016l28.013-13.396l-42.251-12.285
					c-6.631-1.926-11.445-7.659-12.202-14.521c-0.762-6.86,2.69-13.506,8.74-16.831l41.958-23.081
					c-42.402-13.076-112.871-39.463-194.18-88.562c-122.109-73.733-253.745-61.672-255.059-61.548
					c-6.162,0.606-12.158-2.151-15.698-7.222c-3.535-5.068-4.067-11.653-1.367-17.214l17.114-35.303
					c-307.031,60.161-394.653,241.27-395.532,243.154c-2.188,4.7-6.411,8.196-11.445,9.426
					c-86.909,21.245-151.904,75.205-193.189,160.378c-17.573,36.262-26.943,70.857-31.787,94.37l24.473-11.333
					c7.52-3.477,16.435-1.062,21.172,5.72c4.736,6.785,3.926,15.994-1.929,21.846c-5.483,5.486-9.531,25.242-11.528,47.651
					c8.994-5.603,16.475-9.097,18.159-9.861C1474.927,1537.978,1477.335,1537.475,1479.732,1537.475z M1643.243,1213.649h0.049
					H1643.243z"/>
			</g>
		</g>
		<g>
			<g>
				<line style="fill:#FFFFFF;" x1="2439.852" y1="2488.063" x2="2465.122" y2="2660.496"/>
			</g>
			<g>
				<path style="fill:#FFFFFF;" d="M2606.362,2303.641c-39.556-23.293-113.267-65.968-155.077-85.597
					c6.894-28.653-6.392-56.449-29.741-62.133c-19.376-4.718-39.569,7.296-49.921,27.863
					c-292.614-114.422-548.217-89.49-729.196-36.994c-11.74-17.825-31.224-27.239-49.219-21.85
					c-18.673,5.592-29.969,25.363-29.108,47.708c-72.315,26.855-127.62,55.872-162.132,76.133
					c-26.855,15.766-44.049,43.986-45.225,75.105c-3.416,90.379,9.704,280.519,170.554,347.54l937.854,28.719
					c169.682-70.7,175.974-268.436,171.292-347.377C2635.234,2332.373,2623.959,2314.003,2606.362,2303.641z"/>
			</g>
			<g style="opacity:0.3;">
				<path style="fill:#371A45;" d="M2636.443,2352.758c-0.756-12.747-5.449-24.706-13.162-34.413
					c5.2,49.639,2.931,100.923-19.417,133.051c-55.145,79.28-164.011,36.667-164.011,36.667s-127.867-285.52-443.002-280.451
					c-385.67,6.204-444.282,251.713-444.282,251.713s-55,49.549-136.262-7.929c-39.242-27.756-53.871-85.541-58.538-137.895
					c-0.528,3.414-0.893,6.872-1.025,10.375c-3.416,90.379,9.704,280.519,170.554,347.54l937.854,28.719
					C2634.833,2629.434,2641.126,2431.699,2636.443,2352.758z"/>
			</g>
		</g>
		<g>
			<g>
				<path style="fill:#371A45;" d="M1559.412,2460.327l-15.222,173.905c-0.823,9.409-9.119,16.37-18.528,15.546
					c-9.409-0.823-16.37-9.119-15.544-18.528c0.056-0.665,0.156-1.331,0.288-1.969l35.317-170.959
					c0.774-3.748,4.441-6.158,8.188-5.385C1557.393,2453.656,1559.719,2456.87,1559.412,2460.327z"/>
			</g>
		</g>
		<g>
			<g>
				<path style="fill:#371A45;" d="M2446.697,2487.061l35.317,170.959c1.912,9.249-4.038,18.297-13.289,20.209
					c-9.248,1.91-18.296-4.039-20.208-13.289c-0.134-0.653-0.229-1.32-0.288-1.969l-15.222-173.905
					c-0.334-3.812,2.485-7.173,6.299-7.507C2442.847,2481.25,2445.999,2483.661,2446.697,2487.061z"/>
			</g>
			<g>
				<path style="fill:#371A45;" d="M2465.152,2717.209c-0.176,0-0.347-0.002-0.522-0.007l-937.856-28.721
					c-2.075-0.063-4.126-0.505-6.045-1.306c-173.1-72.124-184.277-278.542-181.045-363.943c1.396-36.948,21.45-70.288,53.643-89.185
					c32.617-19.148,85.298-47.036,154.233-73.42c3.11-25.215,18.496-45.388,40.752-52.053c20.991-6.286,44.009,1.15,60.396,18.669
					c166.704-46.484,422.144-75.605,716.094,35.615c15.4-19.424,38.73-28.916,60.781-23.535
					c28.398,6.912,46.484,36.267,44.409,68.811c43.193,21.458,108.179,59.092,145.034,80.793l0,0
					c22.539,13.274,36.919,36.758,38.457,62.822c5.02,84.624-2.642,289.512-181.763,364.146
					C2469.635,2716.764,2467.403,2717.209,2465.152,2717.209z M1531.011,2654.448l930.918,28.508
					c155.654-67.431,162.026-252.388,157.471-329.187c-0.869-14.688-8.984-27.927-21.699-35.417
					c-39.771-23.418-112.622-65.583-153.672-84.854c-7.334-3.442-11.24-11.57-9.346-19.448c4.604-19.136-3.262-38.164-17.178-41.55
					c-11.055-2.7-23.667,5.093-30.635,18.95c-3.965,7.874-13.267,11.433-21.465,8.225c-297.1-116.177-554.546-83.967-718.223-36.499
					c-7.173,2.08-14.902-0.757-19.014-7.007c-7.866-11.936-19.961-17.925-30.063-14.885c-10.552,3.159-17.52,15.784-16.948,30.696
					c0.283,7.373-4.199,14.094-11.118,16.663c-71.816,26.67-126.338,55.427-159.429,74.854
					c-22.09,12.969-35.85,35.781-36.807,61.025C1370.152,2421.122,1385.831,2591.835,1531.011,2654.448z"/>
			</g>
		</g>
		<g>
			<g>
				<path style="fill:#606060;" d="M1414.324,3155c0,0-144.131-381.377,33.713-543.044c86.396-78.604,298.07-68.913,431.737-53.275
					c77.535,9.041,155.959,9.041,233.494,0c133.726-15.637,345.341-25.328,431.795,53.275
					c177.844,161.667,33.655,543.044,33.655,543.044"/>
			</g>
			<g>
				<path style="fill:#371A45;" d="M1414.327,3172.077c-6.899,0-13.394-4.209-15.977-11.042
					c-6.05-16.016-146.113-394.163,38.203-561.711c88.281-80.32,290.84-75.657,445.205-57.6c76.152,8.877,153.379,8.882,229.531,0
					c154.37-18.052,356.929-22.71,445.259,57.603c184.321,167.546,44.199,545.696,38.145,561.712
					c-3.335,8.818-13.193,13.269-22.007,9.931c-8.818-3.333-13.267-13.184-9.937-22.002c1.401-3.708,137.983-372.429-29.17-524.375
					c-82.988-75.457-297.715-63.057-418.33-48.953c-78.779,9.185-158.672,9.185-237.451,0
					c-120.615-14.109-335.332-26.514-418.271,48.948c-167.324,152.099-30.635,520.671-29.233,524.377
					c3.33,8.821-1.118,18.672-9.937,22.007C1418.37,3171.72,1416.329,3172.077,1414.327,3172.077z"/>
			</g>
		</g>
		<g>
			<path style="fill:#606060;" d="M2460.335,3155c0,0,114.816-303.838-26.816-432.627c-68.853-62.552-237.481-54.881-343.972-42.453
				c-61.779,7.254-124.212,7.254-186.049,0c-106.493-12.427-275.06-20.098-343.914,42.453
				C1417.892,2851.162,1532.708,3155,1532.708,3155"/>
			<path style="fill:#371A45;" d="M2460.333,3172.074c-2.007,0-4.043-0.356-6.03-1.106c-8.818-3.327-13.267-13.179-9.941-22
				c1.104-2.932,109.033-294.517-22.329-413.965c-48.242-43.828-165.625-57.373-330.508-38.127
				c-63.003,7.402-126.943,7.4-190.015-0.002c-164.854-19.239-282.207-5.694-330.444,38.135
				c-131.411,119.446-23.491,411.03-22.388,413.96c3.325,8.821-1.123,18.672-9.942,22c-8.838,3.333-18.667-1.116-22.002-9.934
				c-4.854-12.849-117.207-316.25,31.367-451.296c71.333-64.802,233.716-61.204,357.373-46.777
				c60.454,7.087,121.714,7.085,182.08,0.002c123.701-14.431,286.104-18.034,357.441,46.772
				c148.521,135.052,36.162,438.45,31.309,451.299C2473.721,3167.868,2467.227,3172.074,2460.333,3172.074z"/>
		</g>
		<g>
			<g>
				<path style="fill:#606060;" d="M1532.709,3155c0,0-114.819-303.835,26.873-432.625c68.854-62.554,237.42-54.884,343.913-42.458
					c61.84,7.258,124.273,7.258,186.055,0c106.487-12.426,275.116-20.096,343.97,42.458
					c141.634,128.79,26.815,432.625,26.815,432.625"/>
			</g>
			<g style="opacity:0.3;">
				<path style="fill:#371A45;" d="M1490.457,3155c0,0-125.218-333.719,29.307-475.177c75.09-68.707,258.922-60.282,375.06-46.634
					c67.441,7.972,135.528,7.972,202.905,0c116.131-13.648,300.033-22.073,375.124,46.634
					c154.462,141.457,29.243,475.177,29.243,475.177"/>
			</g>
			<g>
				<path style="fill:#371A45;" d="M1532.715,3172.077c-6.899,0-13.393-4.209-15.976-11.042
					c-4.854-12.849-117.212-316.247,31.357-451.294c71.343-64.81,233.735-61.208,357.378-46.782
					c60.444,7.095,121.699,7.092,182.085,0.002c123.691-14.434,286.094-18.035,357.441,46.777
					c148.516,135.051,36.157,438.447,31.304,451.296c-3.335,8.821-13.188,13.262-22.002,9.934c-8.818-3.327-13.267-13.179-9.941-22
					c1.104-2.932,109.033-294.514-22.324-413.962c-48.247-43.831-165.615-57.375-330.508-38.132
					c-63.003,7.407-126.943,7.405-190.024-0.003c-164.844-19.229-282.192-5.688-330.444,38.14
					c-131.572,119.594-23.486,411.023-22.378,413.952c3.33,8.821-1.118,18.672-9.936,22.007
					C1536.759,3171.72,1534.718,3172.077,1532.715,3172.077z"/>
			</g>
		</g>
	</g>
</g>
</svg>
